<svg baseProfile="full" xmlns="http://www.w3.org/2000/svg" height="51" width="50"><path fill="#F30C16" d="M25 .999C11.192.999 0 12.19 0 26c0 13.809 11.192 25 25 25s25-11.191 25-25C50 12.19 38.808.999 25 .999zm-1.755 9.733h3.511v17.414h-3.511V10.732zM25 38.821c-6.745 0-12.218-5.473-12.218-12.219 0-5.631 3.809-10.368 8.991-11.788v3.551a8.847 8.847 0 0 0-5.619 8.237c0 4.885 3.961 8.848 8.846 8.848a8.85 8.85 0 0 0 8.848-8.848 8.85 8.85 0 0 0-5.617-8.237v-3.551c5.178 1.42 8.987 6.157 8.987 11.788 0 6.746-5.47 12.219-12.218 12.219z"/></svg>